HIERARCHY
ROOT Hips
{
  OFFSET 50.5741 97.1054 4.7503
  CHANNELS 6 Xposition Yposition Zposition Zrotation Xrotation Yrotation
  JOINT spine
  {
    OFFSET 0 7.96568 0.458067
    CHANNELS 3 Zrotation Xrotation Yrotation
    JOINT spine1
    {
      OFFSET 0 10.2431 0
      CHANNELS 3 Zrotation Xrotation Yrotation
      JOINT spine2
      {
        OFFSET 0 9.81475 0
        CHANNELS 3 Zrotation Xrotation Yrotation
        JOINT Neck
        {
          OFFSET 0 25.1986 1.20138
          CHANNELS 3 Zrotation Xrotation Yrotation
          JOINT Head
          {
            OFFSET 0 7.61315 0
            CHANNELS 3 Zrotation Xrotation Yrotation
            End Site
            {
              OFFSET 0 18.4281 -6.07733
            }
          }
        }
        JOINT RightShoulder
        {
          OFFSET -4.1327 10.5992 -0.575451
          CHANNELS 3 Zrotation Xrotation Yrotation
          JOINT RightArm
          {
            OFFSET 0 13.9018 0
            CHANNELS 3 Zrotation Xrotation Yrotation
            JOINT RightArmRoll
            {
              OFFSET 0 7.01789 0
              CHANNELS 3 Zrotation Xrotation Yrotation
              JOINT RightForeArm
              {
                OFFSET 0 20.4406 0
                CHANNELS 3 Zrotation Xrotation Yrotation
                JOINT RightForeArmRoll
                {
                  OFFSET 0 7.87515 0
                  CHANNELS 3 Zrotation Xrotation Yrotation
                  JOINT RightHand
                  {
                    OFFSET 0 15.8037 0
                    CHANNELS 3 Zrotation Xrotation Yrotation
                    End Site
                    {
                      OFFSET 0 0 0
                    }
                  }
                }
              }
            }
          }
        }
        JOINT LeftShoulder
        {
          OFFSET 4.1327 10.5992 -0.575451
          CHANNELS 3 Zrotation Xrotation Yrotation
          JOINT LeftArm
          {
            OFFSET 0 13.9018 0
            CHANNELS 3 Zrotation Xrotation Yrotation
            JOINT LeftArmRoll
            {
              OFFSET 0 7.01788 0
              CHANNELS 3 Zrotation Xrotation Yrotation
              JOINT LeftForeArm
              {
                OFFSET 0 20.4406 0
                CHANNELS 3 Zrotation Xrotation Yrotation
                JOINT LeftForeArmRoll
                {
                  OFFSET 0 7.87515 0
                  CHANNELS 3 Zrotation Xrotation Yrotation
                  JOINT LeftHand
                  {
                    OFFSET 0 15.8037 0
                    CHANNELS 3 Zrotation Xrotation Yrotation
                    End Site
                    {
                      OFFSET 0 0 0
                    }
                  }
                }
              }
            }
          }
        }
      }
    }
  }
  JOINT RightUpLeg
  {
    OFFSET -7.06048 -1.2947 -1.0861
    CHANNELS 3 Zrotation Xrotation Yrotation
    JOINT RightUpLegRoll
    {
      OFFSET 0 18.5308 0
      CHANNELS 3 Zrotation Xrotation Yrotation
      JOINT RightLeg
      {
        OFFSET 0 -22.9476 0
        CHANNELS 3 Zrotation Xrotation Yrotation
        JOINT RightLegRoll
        {
          OFFSET 0 23.0226 0
          CHANNELS 3 Zrotation Xrotation Yrotation
          JOINT RightFoot
          {
            OFFSET 0 19.1625 0
            CHANNELS 3 Zrotation Xrotation Yrotation
            JOINT RightToeBase
            {
              OFFSET 0 16.0188 0
              CHANNELS 3 Zrotation Xrotation Yrotation
              End Site
              {
                OFFSET 0.00678979 7.75782 -0.894206
              }
            }
          }
        }
      }
    }
  }
  JOINT LeftUpLeg
  {
    OFFSET 7.06048 -1.2947 -1.0861
    CHANNELS 3 Zrotation Xrotation Yrotation
    JOINT LeftUpLegRoll
    {
      OFFSET 0 18.5309 0
      CHANNELS 3 Zrotation Xrotation Yrotation
      JOINT LeftLeg
      {
        OFFSET 0 22.9475 0
        CHANNELS 3 Zrotation Xrotation Yrotation
        JOINT LeftLegRoll
        {
          OFFSET 0 23.2355 0
          CHANNELS 3 Zrotation Xrotation Yrotation
          JOINT LeftFoot
          {
            OFFSET 0 18.9496 0
            CHANNELS 3 Zrotation Xrotation Yrotation
            JOINT LeftToeBase
            {
              OFFSET 0 16.0188 0
              CHANNELS 3 Zrotation Xrotation Yrotation
              End Site
              {
                OFFSET -0.0304289 7.75781 -0.894207
              }
            }
          }
        }
      }
    }
  }
}
MOTION
Frames: 9
Frame Time: 0.00208333
49.0049 96.3824 5.76957 4.0781 -1.07186 26.5184 0.624807 1.20861 0.869731 1.2267 6.42872 1.64679 1.20952 8.07331 1.62874 -30.0895 -5.85757 -1.39593 30.4622 23.0752 -8.12318 31.919 1.57086 5.53566 76.9961 72.2595 35.4556 1.67035e-006 -2.71753e-006 -1.39502e-005 -11.7354 23.3845 1.78348 -2.42281e-006 8.70772e-006 -2.99999 8.02981 -4.95102 0.69757 -65.4409 -18.2672 10.8652 -98.2293 -14.6738 29.9274 4.28466e-006 -7.4693e-007 2.81354e-006 -27.839 89.0181 35.4468 1.37234e-005 -2.36437e-006 3.00153 -8.02957 -4.95094 -0.697522 175.531 -1.67146 4.17526 180 7.01535e-015 178.871 178.582 12.7623 179.493 -2.20261e-006 -4.48611e-006 0.285844 -20.688 70.2562 21.6254 8.27255 27.806 -2.74907 -177.364 6.25432 3.13118 4.54188e-006 -4.6773e-006 -1.09683 1.97801 -8.01087 0.258701 1.01318e-006 -3.52976e-006 0.250549 16.5849 64.5885 -17.0586 -8.13092 25.233 3.48535 
49.0104 96.3851 5.80677 4.09705 -1.1088 26.5579 0.619159 1.1998 0.868178 1.21607 6.41102 1.64456 1.19888 8.05562 1.62669 -30.0839 -5.55672 -1.35566 30.5549 22.9657 -8.14292 32.0405 1.59541 5.53502 77.8451 71.7985 34.6744 1.67035e-006 -2.71753e-006 -1.39502e-005 -11.55 24.032 1.8165 -2.42281e-006 8.70772e-006 -2.99999 8.02981 -4.95102 0.69757 -65.4604 -18.1788 10.8133 -98.2349 -14.6938 29.881 4.28466e-006 -7.4693e-007 2.81354e-006 -28.1024 89.0566 35.7292 1.37234e-005 -2.36437e-006 3.00152 -8.02957 -4.95094 -0.697522 175.534 -1.73821 4.18664 180 7.01534e-015 178.87 178.577 12.7566 179.495 -2.20261e-006 -4.48611e-006 0.284938 -20.6837 70.2513 21.6202 8.27575 27.8582 -2.75715 -177.382 6.20783 3.15959 4.54188e-006 -4.6773e-006 -1.09743 2.00701 -8.01272 0.261405 1.01318e-006 -3.52976e-006 0.25089 16.5867 64.5923 -17.0603 -8.13093 25.233 3.48536 
49.0218 96.3837 5.82015 4.11422 -1.14605 26.5915 0.613581 1.19091 0.866104 1.20554 6.39317 1.64129 1.18837 8.03777 1.62358 -30.0777 -5.26004 -1.3125 30.6435 22.8538 -8.15687 32.1622 1.62071 5.53495 78.6842 71.3302 33.8981 1.67035e-006 -2.71753e-006 -1.39502e-005 -11.3585 24.6965 1.84489 -2.42281e-006 8.70772e-006 -2.99999 8.02981 -4.95102 0.69757 -65.4797 -18.0956 10.7645 -98.238 -14.7155 29.8374 4.28466e-006 -7.4693e-007 2.81354e-006 -28.4254 89.098 36.0728 1.37234e-005 -2.36437e-006 3.00151 -8.02957 -4.95094 -0.697522 175.54 -1.80433 4.19632 180 7.01534e-015 178.868 178.572 12.7492 179.496 -2.20261e-006 -4.48611e-006 0.284037 -20.6785 70.2453 21.6139 8.27887 27.9096 -2.76464 -177.398 6.16297 3.18518 4.54188e-006 -4.6773e-006 -1.09814 2.03484 -8.01862 0.264326 1.01318e-006 -3.52976e-006 0.25101 16.5899 64.5983 -17.0634 -8.13094 25.233 3.48536 
49.027 96.3902 5.84116 4.12935 -1.18386 26.6182 0.608119 1.18202 0.863431 1.19521 6.37529 1.6368 1.17806 8.0199 1.61926 -30.0706 -4.96867 -1.26597 30.727 22.7391 -8.16389 32.2839 1.64624 5.53497 79.5152 70.8556 33.1236 1.67035e-006 -2.71753e-006 -1.39502e-005 -11.1606 25.3781 1.86783 -2.42281e-006 8.70772e-006 -2.99999 8.02981 -4.95102 0.69757 -65.4987 -18.0185 10.7192 -98.2389 -14.74 29.7965 4.28466e-006 -7.4693e-007 2.81354e-006 -28.8228 89.1433 36.4933 1.37234e-005 -2.36437e-006 3.0015 -8.02957 -4.95094 -0.697522 175.547 -1.86995 4.20405 180 7.01534e-015 178.867 178.569 12.7398 179.498 -2.20261e-006 -4.48611e-006 0.283139 -20.6719 70.2379 21.6062 8.28193 27.9603 -2.7714 -177.409 6.11977 3.20716 4.54188e-006 -4.6773e-006 -1.09898 2.06105 -8.02921 0.267476 1.01318e-006 -3.52976e-006 0.250869 16.5946 64.6067 -17.0682 -8.13096 25.233 3.48537 
49.083 96.3957 5.86701 4.14219 -1.22245 26.6371 0.60282 1.17318 0.860085 1.18514 6.35752 1.63095 1.16803 8.00213 1.61355 -30.0624 -4.68375 -1.21557 30.8042 22.621 -8.16287 32.4052 1.67149 5.53454 80.3398 70.3758 32.3483 1.67035e-006 -2.71753e-006 -1.39502e-005 -10.9557 26.0767 1.88444 -2.42281e-006 8.70772e-006 -2.99999 8.02981 -4.95102 0.69757 -65.5173 -17.9486 10.6781 -98.2377 -14.7685 29.7585 4.28466e-006 -7.4693e-007 2.81354e-006 -29.3172 89.1936 37.0138 1.37234e-005 -2.36437e-006 3.00149 -8.02957 -4.95094 -0.697522 175.558 -1.9352 4.20954 180 7.01533e-015 178.865 178.567 12.7279 179.499 -2.20261e-006 -4.48611e-006 0.282244 -20.6638 70.2288 21.597 8.2849 28.0104 -2.77727 -177.417 6.07828 3.22474 4.54188e-006 -4.6773e-006 -1.09998 2.08523 -8.0451 0.270865 1.01318e-006 -3.52976e-006 0.250431 16.601 64.618 -17.075 -8.13097 25.233 3.48538 
49.0742 96.3909 5.88051 4.15249 -1.26208 26.6473 0.59773 1.16446 0.855987 1.17542 6.33998 1.62356 1.15838 7.98459 1.60632 -30.0531 -4.40641 -1.16081 30.8741 22.4991 -8.15268 32.5261 1.69593 5.53315 81.1596 69.8918 31.5693 1.67035e-006 -2.71753e-006 -1.39502e-005 -10.7431 26.7924 1.89383 -2.42281e-006 8.70772e-006 -2.99999 8.02981 -4.95102 0.69757 -65.5354 -17.8868 10.6417 -98.2346 -14.8021 29.7234 4.28466e-006 -7.4693e-007 2.81354e-006 -29.9427 89.2499 37.6693 1.37234e-005 -2.36437e-006 3.00149 -8.02957 -4.95094 -0.697522 175.572 -2.00021 4.21253 180 7.01533e-015 178.863 178.566 12.7132 179.5 -2.20261e-006 -4.48611e-006 0.281353 -20.6538 70.2177 21.5858 8.28778 28.06 -2.78209 -177.419 6.03854 3.23713 4.54188e-006 -4.6773e-006 -1.10116 2.10693 -8.0669 0.274505 1.01318e-006 -3.52976e-006 0.249657 16.6094 64.6324 -17.084 -8.13098 25.233 3.48538 
49.0479 96.3901 5.89377 4.15987 -1.30263 26.6484 0.592767 1.15556 0.851103 1.16591 6.32207 1.61458 1.14895 7.9667 1.59748 -30.0431 -4.13237 -1.1001 30.9386 22.3717 -8.1326 32.6432 1.7225 5.53434 81.9739 69.3955 30.7856 1.67035e-006 -2.71753e-006 -1.39502e-005 -10.5179 27.5326 1.89664 -2.42281e-006 8.70772e-006 -2.99999 8.02981 -4.95102 0.69757 -65.554 -17.8338 10.6103 -98.2272 -14.8396 29.692 4.28466e-006 -7.4693e-007 2.81354e-006 -30.7764 89.3117 38.5363 1.37234e-005 -2.36437e-006 3.00148 -8.02957 -4.95094 -0.697522 175.59 -2.0648 4.21254 180 7.01532e-015 178.861 178.566 12.6955 179.5 -2.20261e-006 -4.48611e-006 0.280461 -20.6421 70.2049 21.5728 8.29052 28.1082 -2.78597 -177.417 6.00101 3.24496 4.54188e-006 -4.6773e-006 -1.10255 2.12687 -8.09509 0.278514 1.01318e-006 -3.52976e-006 0.248548 16.62 64.6504 -17.0955 -8.131 25.233 3.48539 
49.0729 96.3914 5.90323 4.16432 -1.34373 26.641 0.587813 1.14618 0.845493 1.15638 6.30321 1.60416 1.13952 7.94784 1.5872 -30.033 -3.85714 -1.03285 31.0004 22.2379 -8.10344 32.7544 1.75392 5.54126 82.7784 68.8793 30.0015 1.67035e-006 -2.71753e-006 -1.39502e-005 -10.2769 28.3025 1.8943 -2.42281e-006 8.70772e-006 -2.99999 8.02981 -4.95102 0.69757 -65.5741 -17.7887 10.5832 -98.2137 -14.8787 29.6649 4.28466e-006 -7.4693e-007 2.81354e-006 -31.9149 89.3776 39.7105 1.37234e-005 -2.36437e-006 3.00147 -8.02957 -4.95094 -0.697522 175.611 -2.12867 4.20957 180 7.01532e-015 178.859 178.569 12.6749 179.501 -2.20261e-006 -4.48611e-006 0.279564 -20.6291 70.1906 21.5585 8.29308 28.1543 -2.7892 -177.41 5.96595 3.24959 4.54188e-006 -4.6773e-006 -1.10414 2.14605 -8.12931 0.282966 1.01318e-006 -3.52976e-006 0.247149 16.6329 64.672 -17.1095 -8.13101 25.233 3.48539 
49.0659 96.3892 5.92082 4.16616 -1.38527 26.6261 0.582867 1.1364 0.839228 1.14685 6.28353 1.59244 1.13011 7.92817 1.57561 -30.0229 -3.5816 -0.960037 31.0595 22.0989 -8.06635 32.8612 1.78942 5.55289 83.5696 68.3453 29.2216 1.67035e-006 -2.71753e-006 -1.39502e-005 -10.0221 29.0993 1.88703 -2.42281e-006 8.70772e-006 -2.99999 8.02981 -4.95102 0.69757 -65.5953 -17.7506 10.5599 -98.1946 -14.9191 29.6416 4.28466e-006 -7.4693e-007 2.81354e-006 -33.4731 89.4467 41.3063 1.37234e-005 -2.36437e-006 3.00146 -8.02957 -4.95094 -0.697522 175.635 -2.19181 4.20401 180 7.01531e-015 178.857 178.572 12.652 179.501 -2.20261e-006 -4.48611e-006 0.278664 -20.615 70.175 21.543 8.29548 28.1985 -2.79184 -177.401 5.93316 3.25136 4.54188e-006 -4.6773e-006 -1.1059 2.16451 -8.16893 0.287807 1.01318e-006 -3.52976e-006 0.245488 16.6477 64.6966 -17.1257 -8.13102 25.233 3.4854 
